<svg id="_00s_RePlay_-_Color" data-name="00s RePlay - Color" xmlns="http://www.w3.org/2000/svg" viewBox="0 0 576 288"><defs><style>.cls-1{fill:#fff;}.cls-2{fill:#17e7ff;}</style></defs><path d="M458.73,181.36H446a9.63,9.63,0,0,0-9.63,9.62v8.79a1,1,0,0,1-1,1h0a1,1,0,0,1-1-1V191a9.62,9.62,0,0,0-9.62-9.62H412a9.64,9.64,0,0,0-9.09,6.45c-.25-.28-.5-.54-.76-.81a18.84,18.84,0,0,0-13.63-5.68h-37.4a10.23,10.23,0,0,0-10.3,10,10.09,10.09,0,0,0,5.07,8.9c-.24.22-.48.44-.71.68a14.58,14.58,0,0,0-4.27,9.71H316.35l-.07-.06s0-.05-.06-.06V191a9.63,9.63,0,0,0-9.63-9.62H294.21a10,10,0,0,0-2.21.25,17.7,17.7,0,0,0-3.24-4.41,17.48,17.48,0,0,0-6-3.94c7.92.38,15.85.58,23.72.58,13.32,0,26.83-.56,40.15-1.64h.06a31.7,31.7,0,0,0,18.75-8.94,33.91,33.91,0,0,0,6.65-8.76v10.25a6.83,6.83,0,0,0,6.83,6.83h68c14.33,0,26.25-11.72,26.06-26a25.6,25.6,0,0,0-6.66-16.92,6.82,6.82,0,0,0,3.95-6.2V103.23a6.83,6.83,0,0,0-6.83-6.83h-6.19a9.47,9.47,0,0,0,.65-3.47V69.27a9.67,9.67,0,0,0-14.51-8.37L424.31,72V69.27A9.67,9.67,0,0,0,409.8,60.9L389.31,72.73a9.68,9.68,0,0,0,0,16.75l12,6.92h-6.19a25.65,25.65,0,0,0-18.57,7.94q-.37-9-1.36-18.06v-.07a31,31,0,0,0-9.72-18.46,31.7,31.7,0,0,0-18.75-8.94h-.06c-13.32-1.09-26.83-1.64-40.15-1.64s-26.83.55-40.16,1.64h-.06a31.67,31.67,0,0,0-18.74,8.94,33.18,33.18,0,0,0-7.67,10.9,33.18,33.18,0,0,0-7.67-10.9,31.67,31.67,0,0,0-18.75-8.94h-.06c-13.32-1.09-26.83-1.64-40.15-1.64s-26.83.55-40.15,1.64H133a31.7,31.7,0,0,0-18.75,8.94,31,31,0,0,0-9.72,18.46v.07a268,268,0,0,0,0,58.44v.06a31,31,0,0,0,9.72,18.47,31.93,31.93,0,0,0,17.88,8.84h-8a16.59,16.59,0,0,0-16.54,16.58v31.14a11,11,0,0,0,10.56,11A10.83,10.83,0,0,0,129.28,220v-3.72l17.78,11.21a20.5,20.5,0,0,0,11.21,3.34h48.49a10.56,10.56,0,0,0,7.13-2.77,10.19,10.19,0,0,0,3.34-7.24,10.58,10.58,0,0,0-.91-4.55h.55a16.93,16.93,0,0,0,9.24-2.66v6.19a11,11,0,0,0,10.56,11A10.83,10.83,0,0,0,247.76,220v-5.54a10.61,10.61,0,0,0,4.64,1.08h24.09a17,17,0,0,0,8.14-2,18.62,18.62,0,0,0,18.58,17.3H449.26a18.75,18.75,0,0,0,13.37-5.47,19.47,19.47,0,0,0,5.73-13.83V191A9.63,9.63,0,0,0,458.73,181.36ZM424.31,92.93V90.26L435,96.4h-11.3A9.47,9.47,0,0,0,424.31,92.93ZM306.5,95.08c6.75,0,13.61.27,20.37.81,2.44.23,5.3,2.8,5.59,5a124.63,124.63,0,0,1,0,27.71c-.29,2.23-3.15,4.8-5.59,5-6.76.54-13.61.81-20.37.81s-13.62-.27-20.38-.81c-2.44-.23-5.3-2.8-5.59-5a124.63,124.63,0,0,1,0-27.71c.3-2.23,3.16-4.8,5.59-5C292.88,95.35,299.74,95.08,306.5,95.08ZM199.21,128.63c-.3,2.23-3.15,4.8-5.6,5-6.76.54-13.61.81-20.37.81s-13.61-.27-20.37-.81c-2.44-.23-5.3-2.8-5.59-5a123.44,123.44,0,0,1,0-27.71c.29-2.23,3.15-4.8,5.59-5,6.76-.54,13.61-.81,20.37-.81s13.61.27,20.37.81c2.44.23,5.3,2.8,5.6,5A124.63,124.63,0,0,1,199.21,128.63Zm14.18,43.57h.06a31.7,31.7,0,0,0,18.75-8.94,33.11,33.11,0,0,0,7.67-10.91,33.11,33.11,0,0,0,7.67,10.91,31.9,31.9,0,0,0,17.87,8.84H242.65A16.65,16.65,0,0,0,226.78,184a19.09,19.09,0,0,0-9.51-2.59H185.5a17.79,17.79,0,0,0-10.72,3.48,17.16,17.16,0,0,0-4.5-7.64,17.78,17.78,0,0,0-4.8-3.43c2.59,0,5.18.07,7.76.07C186.56,173.84,200.07,173.28,213.39,172.2Z"/><path class="cls-1" d="M344.46,220.7h0a3.31,3.31,0,0,1-3.31,3.31H303.21a11.78,11.78,0,0,1-11.79-11.8V191a2.79,2.79,0,0,1,2.79-2.79h12.38a2.8,2.8,0,0,1,2.8,2.79v19.31a7.05,7.05,0,0,0,7.05,7.1h24.71A3.31,3.31,0,0,1,344.46,220.7Zm33.36-17.43H355.67a7.57,7.57,0,0,0-5.61,2.37,7.69,7.69,0,0,0-2.33,5.61v4.81a7.61,7.61,0,0,0,2.2,5.49,8.21,8.21,0,0,0,5.93,2.46h22a2.29,2.29,0,1,0,0-4.58h-5.38a3.2,3.2,0,0,1-3.21-3.2v-5.14a3.21,3.21,0,0,1,3.21-3.21h5.38a2.28,2.28,0,0,0,2.29-2.28v0A2.28,2.28,0,0,0,377.82,203.27Zm43.62,10.95H436.9a3.33,3.33,0,1,0,0-6.66h-3.19a6.16,6.16,0,0,1-6.14-6.14V191a2.79,2.79,0,0,0-2.79-2.79H412a2.79,2.79,0,0,0-2.8,2.79v11a12.29,12.29,0,0,0,12.24,12.27Zm37.29-26H446a2.79,2.79,0,0,0-2.8,2.79v20.27a6.16,6.16,0,0,1-6.14,6.14H401V200.62a12.5,12.5,0,0,0-12.43-12.47h-37.6a3.27,3.27,0,1,0,0,6.54h24.85a6.81,6.81,0,0,1,4.81,1.92,6.91,6.91,0,0,1,2.24,4.65v20a2.81,2.81,0,0,0,2.8,2.8h63.64a11.88,11.88,0,0,0,8.59-3.52,12.53,12.53,0,0,0,3.68-9V191A2.79,2.79,0,0,0,458.73,188.19ZM283.93,182a10.15,10.15,0,0,0-7.44-3.11H242.65a9.76,9.76,0,0,0-9.71,9.75V220a4,4,0,0,0,4,4h0a4,4,0,0,0,4-4V202.79a6.27,6.27,0,0,1,6.27-6.3,1.37,1.37,0,0,0,1.39-1.36V184.7h14a6,6,0,0,1,5.9,5.9v4.68a6,6,0,0,1-5.9,5.94H252.56a3.85,3.85,0,0,0-3.9,3.64,3.74,3.74,0,0,0,3.74,3.86h24.09A10.58,10.58,0,0,0,287,198.17v-8.7A10.15,10.15,0,0,0,283.93,182Zm-66.66,6.16H185.5A11.54,11.54,0,0,0,174,199.66l0,11.63a12.45,12.45,0,0,0,1.51,6.1H159.12a5.72,5.72,0,0,1-3.13-.94l-12.52-7.73H158a10.58,10.58,0,0,0,10.55-10.55v-8.7A10.62,10.62,0,0,0,158,178.92H124.17a9.32,9.32,0,0,0-6.86,2.87,9.42,9.42,0,0,0-2.85,6.88V220a4,4,0,0,0,4,4h0a4,4,0,0,0,4-4V202.79a6.27,6.27,0,0,1,6.27-6.3,1.37,1.37,0,0,0,1.39-1.36V184.7h14a6,6,0,0,1,5.9,5.9v4.68a5.75,5.75,0,0,1-1.75,4.2,5.68,5.68,0,0,1-4.15,1.74h-8.94a5,5,0,0,0-4.87,3.68,4.87,4.87,0,0,0,2.05,5.26l18.39,11.6a13.72,13.72,0,0,0,7.51,2.25h48.49a3.6,3.6,0,0,0,3.64-3.39,3.49,3.49,0,0,0-3.49-3.59h-8.17a5.71,5.71,0,0,1-4.23-1.77,6.2,6.2,0,0,1-1.75-4.38l-.16-9.58a6.32,6.32,0,0,1,2-4.71,6.61,6.61,0,0,1,4.77-1.94h9.91v1.23A7.49,7.49,0,0,1,207,201.3a6.92,6.92,0,0,1-5,2h-4a3.15,3.15,0,0,0-3.2,3,3.07,3.07,0,0,0,3.07,3.17h18.91a10.55,10.55,0,0,0,10.51-10.51v-2.89C227.38,191.47,222.23,188.19,217.27,188.19Z"/><path class="cls-2" d="M235.14,87c-1.27-10.63-11.7-20.45-22.3-21.41a484.69,484.69,0,0,0-79.19,0c-10.6,1-21,10.79-22.31,21.41a260.66,260.66,0,0,0,0,57c1.28,10.63,11.71,20.46,22.31,21.42a486.93,486.93,0,0,0,79.19,0c10.6-1,21-10.79,22.3-21.42A259.42,259.42,0,0,0,235.14,87ZM206,129.44c-.67,5.47-6.2,10.54-11.8,11a264,264,0,0,1-41.9,0c-5.6-.49-11.12-5.55-11.8-11a130.75,130.75,0,0,1,0-29.33c.68-5.47,6.2-10.54,11.8-11a264,264,0,0,1,41.9,0c5.61.49,11.13,5.56,11.8,11A130.75,130.75,0,0,1,206,129.44Z"/><path class="cls-2" d="M368.39,87c-1.27-10.63-11.7-20.45-22.3-21.41a484.69,484.69,0,0,0-79.19,0c-10.59,1-21,10.79-22.3,21.41a259.42,259.42,0,0,0,0,57c1.27,10.63,11.71,20.46,22.3,21.42a486.93,486.93,0,0,0,79.19,0c10.6-1,21-10.79,22.3-21.42A259.42,259.42,0,0,0,368.39,87Zm-29.15,42.42c-.67,5.47-6.19,10.54-11.79,11a264,264,0,0,1-41.9,0c-5.61-.49-11.13-5.55-11.8-11a130.75,130.75,0,0,1,0-29.33c.67-5.47,6.19-10.54,11.8-11a264,264,0,0,1,41.9,0c5.6.49,11.12,5.56,11.79,11A129.58,129.58,0,0,1,339.24,129.44Z"/><path class="cls-1" d="M392.73,83.56l20.49,11.83a2.84,2.84,0,0,0,4.26-2.46V69.27a2.84,2.84,0,0,0-4.26-2.45L392.73,78.65A2.83,2.83,0,0,0,392.73,83.56Z"/><path class="cls-1" d="M426.38,83.56l20.49,11.83a2.84,2.84,0,0,0,4.26-2.46V69.27a2.84,2.84,0,0,0-4.26-2.45L426.38,78.65A2.83,2.83,0,0,0,426.38,83.56Z"/><path class="cls-2" d="M447.32,127H396.8a4.84,4.84,0,0,1,0-9.68h52.65v5.12H463.5V103.23H395.12a18.89,18.89,0,1,0,0,37.78h50.52a4.84,4.84,0,1,1,0,9.68H393v-5.12H378.94v19.17h68.38a18.89,18.89,0,0,0,0-37.78Z"/></svg>