<?xml version="1.0" encoding="UTF-8"?>
<svg version="1.1" xmlns="http://www.w3.org/2000/svg" width="1760" height="1431">
<path d="M0 0 C1.89284271 -0.00445668 1.89284271 -0.00445668 3.82392466 -0.0090034 C7.30125426 -0.01700892 10.77856314 -0.01885933 14.25590086 -0.01960087 C18.01604983 -0.02146264 21.77618833 -0.0290153 25.53633118 -0.03573608 C33.74495917 -0.04927173 41.95358224 -0.05533603 50.16221952 -0.05974674 C55.29252061 -0.062516 60.42281983 -0.06675445 65.55311966 -0.07125092 C79.77298807 -0.08343497 93.99285499 -0.09373753 108.2127285 -0.09712601 C109.12135042 -0.09734557 110.02997235 -0.09756514 110.96612827 -0.09779136 C112.33219689 -0.09811878 112.33219689 -0.09811878 113.72586286 -0.09845281 C115.57111764 -0.09889626 117.41637242 -0.09934283 119.2616272 -0.09979248 C120.17692442 -0.10001391 121.09222165 -0.10023534 122.03525515 -0.10046348 C136.87044678 -0.10441262 151.70558933 -0.12187407 166.54076199 -0.145152 C181.79178583 -0.1688884 197.04278505 -0.18132882 212.29382765 -0.18249393 C220.84881941 -0.18340914 229.4037471 -0.18912321 237.95872116 -0.20731354 C245.24148776 -0.22274511 252.52417047 -0.22781681 259.80695032 -0.21957543 C263.5188581 -0.21568038 267.2305971 -0.21654235 270.9424839 -0.23063278 C274.97536708 -0.24580121 279.00787326 -0.23747192 283.04077148 -0.22705078 C284.78156308 -0.23913539 284.78156308 -0.23913539 286.55752218 -0.25146413 C297.56184311 -0.18518399 307.2595818 2.2416106 317.08486938 7.14044189 C317.79965454 7.48333252 318.5144397 7.82622314 319.25088501 8.17950439 C325.12784341 11.02827979 330.19662932 13.98951778 335.02236938 18.45294189 C337.88167156 21.08383827 340.74303173 23.64613415 343.77236938 26.07794189 C358.89297941 38.99272175 368.02278179 59.66505562 370.14736938 79.14044189 C370.47736938 79.47044189 370.80736938 79.80044189 371.14736938 80.14044189 C371.24629878 82.30524986 371.27708039 84.47337974 371.27236938 86.64044189 C371.27494751 87.82637939 371.27752563 89.01231689 371.28018188 90.23419189 C371.14736938 93.14044189 371.14736938 93.14044189 370.14736938 94.14044189 C369.89356704 98.61376148 369.96214217 103.0982765 369.95986938 107.57794189 C369.94762329 108.8444458 369.9353772 110.11094971 369.92276001 111.41583252 C369.92082642 112.62303955 369.91889282 113.83024658 369.91690063 115.07403564 C369.91279175 116.18834961 369.90868286 117.30266357 369.90444946 118.45074463 C369.87149766 121.2916615 369.87149766 121.2916615 372.14736938 123.14044189 C372.39028931 125.79718018 372.39028931 125.79718018 372.37783813 129.21075439 C372.37662964 130.48467041 372.37542114 131.75858643 372.37417603 133.07110596 C372.36166117 134.46922332 372.34854363 135.86733539 372.33486938 137.26544189 C372.32730845 138.70001057 372.32007009 140.13458097 372.31314087 141.56915283 C372.24673336 151.84587472 372.02123022 162.11843848 371.70986938 172.39044189 C371.65125732 174.33974609 371.65125732 174.33974609 371.59146118 176.32843018 C371.26625801 185.91788204 371.26625801 185.91788204 370.91367531 189.54357338 C370.05725921 198.36303994 369.9988931 207.13538912 370.00210571 215.98468018 C369.99910743 217.64820938 369.99570337 219.31173789 369.9919281 220.9752655 C369.98316185 225.45595501 369.98075341 229.93662538 369.98011231 234.41732264 C369.97939875 237.21816739 369.97725886 240.01900736 369.9746151 242.81985092 C369.96539319 252.59338437 369.96127712 262.36690424 369.96206665 272.14044189 C369.96266982 281.25199424 369.95206322 290.36348784 369.93632299 299.4750253 C369.92327325 307.30793287 369.91788152 315.14082114 369.91852206 322.9737395 C369.91877737 327.64839878 369.91590644 332.32300553 369.90534401 336.99765396 C369.89570377 341.38243695 369.89555557 345.76711664 369.90286064 350.15190315 C369.90391088 351.76363207 369.90151775 353.37536731 369.89550018 354.98708534 C369.88784043 357.17977677 369.89238417 359.3721058 369.90013123 361.56478882 C369.89958646 362.79362352 369.89904169 364.02245823 369.89848042 365.28853035 C369.85097504 368.27268297 369.85097504 368.27268297 372.14736938 370.14044189 C372.34089142 372.9748834 372.40956757 375.71124745 372.39028931 378.54644775 C372.39218765 379.41664551 372.394086 380.28684326 372.39604187 381.18341064 C372.39976016 384.074126 372.389023 386.9645924 372.37783813 389.85528564 C372.37664585 391.86631745 372.37619328 393.87734982 372.37644958 395.88838196 C372.37488243 400.11444563 372.36658089 404.34042487 372.35317993 408.56646729 C372.33628778 413.95961532 372.33236279 419.35266965 372.33312511 424.74584103 C372.3328517 428.90593852 372.32734154 433.06601589 372.32012367 437.22610664 C372.3169592 439.21264048 372.31497484 441.19917659 372.31422997 443.18571281 C372.29947475 461.99045991 372.29947475 461.99045991 371.3731842 469.98217773 C370.93933164 474.12879859 371.00163546 478.28801515 371.02236938 482.45294189 C371.02430298 483.45655762 371.02623657 484.46017334 371.02822876 485.49420166 C371.07997498 495.19302529 371.36799679 504.88371288 371.64736938 514.57794189 C372.00938058 527.16239529 372.25644352 539.73800364 372.27236938 552.32794189 C372.27611572 553.34366776 372.27611572 553.34366776 372.27993774 554.37991333 C372.2983604 560.38873922 372.29582321 566.33909784 371.63955688 572.31622314 C370.369535 584.76403652 371.09662343 597.46103872 371.43643188 609.94512939 C371.46324036 610.9354718 371.49004883 611.92581421 371.51766968 612.94616699 C371.62943094 617.00869304 371.74249301 621.07108223 371.8710022 625.13311768 C371.96505093 628.15360184 372.04559603 631.17420236 372.12393188 634.19512939 C372.17222641 635.56385696 372.17222641 635.56385696 372.22149658 636.9602356 C372.33629989 641.83166736 371.9818673 645.54528332 370.14736938 650.14044189 C369.83533779 652.34333161 369.56632393 654.55263472 369.33486938 656.76544189 C368.39165382 663.84704445 366.22461327 669.72951713 363.14736938 676.14044189 C362.43580688 677.68731689 362.43580688 677.68731689 361.70986938 679.26544189 C361.19424438 680.21419189 360.67861938 681.16294189 360.14736938 682.14044189 C359.76322876 682.85200439 359.37908813 683.56356689 358.98330688 684.29669189 C351.01908179 698.35644122 340.03063451 710.46863339 325.14736938 717.14044189 C322.82388669 718.51070092 320.52071364 719.90852744 318.22940063 721.33184814 C297.79903109 733.44543009 270.34908708 730.46458573 247.39999628 730.54513359 C243.39528652 730.56120761 239.39064593 730.58808457 235.38598633 730.61346436 C227.68569634 730.66051761 219.98539205 730.69745316 212.28502989 730.73036361 C206.08351291 730.75705788 199.88202686 730.78773496 193.68054199 730.82104492 C169.50289373 730.95061308 145.32521944 731.05663492 121.14736938 731.14044189 C120.05560552 731.14424866 120.05560552 731.14424866 118.94178581 731.14813232 C101.85363814 731.20746285 84.76553144 731.25054426 67.67728043 731.26293182 C64.753113 731.26540532 61.82895054 731.26935029 58.90478516 731.27355957 C-31.45352586 731.38637186 -31.45352586 731.38637186 -57.85263062 711.14044189 C-59.70686822 709.23053434 -61.22711104 707.25854317 -62.85263062 705.14044189 C-64.09013062 704.39794189 -64.09013062 704.39794189 -65.35263062 703.64044189 C-68.58807757 701.69917372 -70.56472867 699.06466656 -72.85263062 696.14044189 C-74.09013062 694.71731689 -74.09013062 694.71731689 -75.35263062 693.26544189 C-79.93429614 687.74727241 -83.19169358 681.79278449 -85.85263062 675.14044189 C-86.36825562 674.08856689 -86.88388062 673.03669189 -87.41513062 671.95294189 C-89.23695311 667.77793201 -89.72062505 663.39598795 -90.32528687 658.90997314 C-90.69961707 656.20052432 -90.69961707 656.20052432 -91.86992095 654.22693744 C-92.94706897 651.93992976 -93.10285037 650.4978479 -93.10332894 647.98698187 C-93.10833598 647.16053637 -93.11334302 646.33409088 -93.11850178 645.48260158 C-93.11147828 644.12595688 -93.11147828 644.12595688 -93.1043129 642.74190521 C-93.10721978 641.77442685 -93.11012666 640.80694848 -93.11312163 639.81015259 C-93.12046558 636.54303033 -93.1134578 633.2760933 -93.1065979 630.00897217 C-93.10890059 627.65310873 -93.11207582 625.297246 -93.11605239 622.94138479 C-93.12268162 617.80627476 -93.12304971 612.67120292 -93.11795807 607.53609276 C-93.11040724 599.90012997 -93.11425321 592.26420277 -93.12037468 584.62824024 C-93.13091894 570.99210075 -93.12998831 557.35597997 -93.12421686 543.71983869 C-93.11919088 531.78681082 -93.11786994 519.85378982 -93.12026215 507.92076111 C-93.12041492 507.13001255 -93.12056769 506.339264 -93.12072509 505.52455337 C-93.12134774 502.31485667 -93.12198453 499.10515998 -93.12264461 495.89546329 C-93.12876619 465.77009565 -93.12321003 435.64473995 -93.11245082 405.51937415 C-93.10295922 378.73957393 -93.10380845 351.95979273 -93.1133728 325.17999268 C-93.12407604 295.11063613 -93.12833209 265.04129013 -93.12214828 234.97193193 C-93.12150682 231.76799552 -93.12088114 228.5640591 -93.12026215 225.36012268 C-93.12010399 224.57119945 -93.11994584 223.78227622 -93.11978289 222.96944622 C-93.11750545 211.0422856 -93.12017313 199.11513259 -93.12522125 187.18797302 C-93.130931 173.62978849 -93.12952887 160.07162565 -93.11865976 146.51344383 C-93.11277376 138.92018737 -93.11242314 131.32697783 -93.11995211 123.73372255 C-93.12494597 118.07433025 -93.1195557 112.41498686 -93.11000296 106.75560218 C-93.10775744 104.45822372 -93.10893079 102.16083903 -93.11375454 99.86346453 C-93.11978334 96.75521108 -93.1136519 93.64721813 -93.1043129 90.53897858 C-93.10899523 89.63454877 -93.11367756 88.73011897 -93.11850178 87.79828221 C-93.11099123 86.55861396 -93.11099123 86.55861396 -93.10332894 85.29390192 C-93.10312567 84.227401 -93.10312567 84.227401 -93.10291828 83.13935462 C-92.8093279 80.79460646 -91.93702034 79.22714797 -90.85263062 77.14044189 C-90.34155668 74.38850532 -89.8889785 71.65657702 -89.47763062 68.89044189 C-88.45820065 62.59532912 -87.18393352 57.65791233 -83.85263062 52.14044189 C-83.17200562 50.71731689 -83.17200562 50.71731689 -82.47763062 49.26544189 C-73.5274513 32.05355859 -60.72447474 19.64364699 -43.85263062 10.14044189 C-42.21294312 9.08856689 -42.21294312 9.08856689 -40.54013062 8.01544189 C-36.19812946 5.51486774 -31.33666722 4.34145919 -26.54794312 2.97247314 C-23.95985094 2.40335479 -23.95985094 2.40335479 -22.85263062 1.14044189 C-15.31691926 -0.13983501 -7.61675886 -0.00566511 0 0 Z M0.14736938 94.14044189 C-0.15183234 97.10535223 -0.25252369 99.86201829 -0.22736073 102.82994843 C-0.23142145 103.74506708 -0.23548218 104.66018574 -0.23966596 105.60303527 C-0.24970102 108.70415594 -0.23813415 111.8048335 -0.22685242 114.90594482 C-0.22958993 117.13776448 -0.23363935 119.36958285 -0.23889607 121.60139799 C-0.24953694 127.76131953 -0.24131909 133.92109711 -0.23014557 140.08101249 C-0.22224249 146.03335603 -0.22836491 151.98568015 -0.23412215 157.93802245 C-0.2460693 170.86976797 -0.24094848 183.80146487 -0.22884387 196.73320772 C-0.21832282 208.0497374 -0.21376644 219.36625049 -0.21513939 230.68278503 C-0.21522342 231.43237091 -0.21530745 232.18195679 -0.21539403 232.9542574 C-0.21574625 235.99679078 -0.21613026 239.03932417 -0.2165596 242.08185755 C-0.22052793 270.64449207 -0.20779136 299.20709723 -0.18703304 327.76972335 C-0.16866252 353.16625282 -0.16285045 378.56275415 -0.16830444 403.95928955 C-0.16865088 405.58990405 -0.16899697 407.22051855 -0.16934273 408.85113305 C-0.16951373 409.65726368 -0.16968472 410.46339432 -0.1698609 411.29395315 C-0.1707144 415.3515957 -0.17153819 419.40923824 -0.1723299 423.4668808 C-0.17248698 424.26732726 -0.17264406 425.06777371 -0.1728059 425.89247612 C-0.17679266 447.09057781 -0.17132483 468.28867678 -0.16281861 489.48677683 C-0.16191154 491.76672668 -0.16100589 494.04667654 -0.16010338 496.32662639 C-0.15950227 497.83919452 -0.15889365 499.35176264 -0.15827747 500.86433076 C-0.15404989 511.42544745 -0.15348042 521.98655881 -0.15538297 532.54767607 C-0.15782199 546.15523704 -0.15378615 559.76276945 -0.13817296 573.37032259 C-0.1308134 579.93650724 -0.12687254 586.50266065 -0.13141632 593.06884956 C-0.13546853 599.07044419 -0.13039682 605.07195672 -0.11779024 611.07353884 C-0.11484265 613.25384824 -0.11532359 615.43416529 -0.11943332 617.61447281 C-0.12448475 620.5600605 -0.11742716 623.50536757 -0.10710621 626.45093536 C-0.11150269 627.31306053 -0.11589918 628.17518569 -0.12042889 629.06343585 C-0.28782011 633.5765807 -0.28782011 633.5765807 2.14736938 637.14044189 C4.61518884 637.33511419 6.97004328 637.4026286 9.43887329 637.38336182 C10.59060736 637.3861711 10.59060736 637.3861711 11.76560879 637.38903713 C14.38514416 637.39274597 17.004419 637.38177953 19.62393188 637.37091064 C21.53843671 637.37009108 23.45294202 637.37006494 25.3674469 637.37075806 C30.70477464 637.36968481 36.04199439 637.35509746 41.37929153 637.33787918 C45.91920549 637.32458316 50.45911951 637.31826417 54.99904728 637.31163311 C71.89806746 637.28563648 88.7968976 637.22175923 105.69577503 637.15073586 C108.22320589 637.14012347 110.7506372 637.12962118 113.27806854 637.11912537 C138.87236728 637.01240548 164.46655525 636.88852893 190.06069827 636.74944991 C195.84558203 636.71808341 201.63047045 636.68789255 207.41536504 636.65859509 C216.68867805 636.61159557 225.96195899 636.56116645 235.23521453 636.50386429 C239.54244605 636.47728528 243.84967178 636.4522555 248.15693474 636.43131638 C252.13640358 636.41187295 256.11581603 636.38779425 260.09523463 636.35993922 C261.54894665 636.35056781 263.00267076 636.34290072 264.45640111 636.337026 C266.42511595 636.32880429 268.3937998 636.31393738 270.36247253 636.29866028 C271.46276574 636.29220773 272.56305895 636.28575518 273.69669437 636.27910709 C276.09341846 636.41640336 276.09341846 636.41640336 277.14736938 635.14044189 C277.70337589 630.93049248 277.95377689 626.68663234 278.27236938 622.45294189 C278.3716272 621.28698486 278.47088501 620.12102783 278.57315063 618.91973877 C278.66209595 617.75120361 278.75104126 616.58266846 278.84268188 615.37872314 C278.92534302 614.32725098 279.00800415 613.27577881 279.09317017 612.19244385 C279.22605323 608.82983902 278.95020061 605.56187712 278.65884399 602.21096802 C277.94397153 592.46403052 278.00734318 582.72853656 278.01797485 572.96002197 C278.01661685 570.84994476 278.01483468 568.73986779 278.01266479 566.62979126 C278.00812318 560.91762019 278.0098705 555.20546728 278.01304388 549.49329591 C278.01560198 543.43481544 278.01321883 537.37633638 278.01165771 531.31785583 C278.00983865 521.09001391 278.01222778 510.8621792 278.01699829 500.63433838 C278.02177606 490.27495856 278.0218775 479.91559315 278.01699829 469.55621338 C278.01004067 454.5074638 278.008227 439.45872339 278.01455688 424.40997314 C278.01507018 423.18925314 278.01558348 421.96853314 278.01611233 420.71082163 C278.03298318 387.71389695 278.16803483 354.72535555 278.88586426 321.73536682 C278.92256289 319.90629382 278.92256289 319.90629382 278.9600029 318.04026985 C279.00417934 315.87753325 279.0537528 313.71489232 279.11140823 311.55247307 C279.23680571 305.36909825 279.02536355 299.25227508 278.66749573 293.08209229 C278.09991938 283.26186908 277.97488785 273.46849319 277.94204712 263.6338501 C277.93243476 261.76900024 277.92242292 259.90415241 277.91204834 258.03930664 C277.88535612 253.04267041 277.86415683 248.04602508 277.84404635 243.04935861 C277.82196272 237.80302603 277.79468505 232.55672032 277.76799011 227.31040955 C277.71836218 217.40521106 277.67331429 207.49999741 277.62996775 197.59476966 C277.58033741 186.30552966 277.52551617 175.01631666 277.47028816 163.72710288 C277.35692799 140.53157448 277.24999148 117.33602011 277.14736938 94.14044189 C274.11388507 92.39050958 271.93570118 91.89014611 268.44686794 91.88875961 C267.50023704 91.88354412 266.55360614 91.87832862 265.57828945 91.87295508 C264.54143113 91.87741653 263.50457282 91.88187797 262.43629456 91.88647461 C260.78050435 91.88179464 260.78050435 91.88179464 259.09126383 91.87702012 C255.3793618 91.86902033 251.66762235 91.87537155 247.95571899 91.88165283 C245.29992694 91.87894387 242.64414623 91.87545604 239.98835754 91.87103271 C233.51614825 91.86213218 227.0439853 91.86406357 220.57177418 91.869858 C215.31302362 91.87437149 210.05428607 91.87498875 204.79553413 91.87281036 C203.67362502 91.87235066 203.67362502 91.87235066 202.52905108 91.87188168 C201.00972441 91.87124224 199.49039774 91.87059382 197.97107107 91.8699365 C183.71948199 91.86423137 169.46791862 91.87079416 155.21633375 91.88153723 C142.98101179 91.89047474 130.74572777 91.88891941 118.51040649 91.87969971 C104.30888178 91.86900345 90.1073796 91.86477878 75.90585142 91.87092423 C74.39236391 91.87156135 72.87887639 91.87219009 71.36538887 91.87281036 C70.62068119 91.87311891 69.8759735 91.87342747 69.10869892 91.87374537 C63.85419301 91.87547411 58.59970137 91.87255339 53.34519768 91.86785126 C46.94477258 91.86224966 40.54439655 91.8637437 34.1439771 91.87441275 C30.87679042 91.87967895 27.60970284 91.8806385 24.34251404 91.87511444 C20.8054134 91.86968365 17.26854616 91.87646314 13.73146057 91.88647461 C12.69237153 91.88201317 11.6532825 91.87755172 10.58270591 91.87295508 C9.16667118 91.88077833 9.16667118 91.88077833 7.72202969 91.88875961 C6.90514122 91.88908432 6.08825276 91.88940902 5.24661011 91.88974357 C2.84386492 92.01624613 2.84386492 92.01624613 0.14736938 94.14044189 Z " fill="#FEFEFE" transform="translate(185.85263061523438,67.85955810546875)"/>
<path d="M0 0 C1.40765625 -0.01836914 1.40765625 -0.01836914 2.84375 -0.03710938 C9.09235647 -0.05005538 15.25074276 0.29707066 21.25 2.1875 C22.24 3.1775 22.24 3.1775 23.25 4.1875 C24.50356794 4.69114098 25.77771122 5.14488223 27.0625 5.5625 C36.13122177 8.84232704 40.16543724 15.61933642 44.1015625 23.98046875 C47.50450547 33.48324487 47.52434038 42.98101499 47.47363281 52.95581055 C47.47310764 54.52898658 47.47354653 56.10216318 47.47486877 57.67533875 C47.47619579 61.04627429 47.47183049 64.41713649 47.46326447 67.78806114 C47.45080387 73.13201231 47.45787364 78.47583002 47.46868896 83.81977844 C47.49705018 99.01034151 47.50964726 114.20078861 47.47998047 129.39135742 C47.46373352 137.794192 47.46903866 146.19673295 47.49777675 154.59953719 C47.51199107 159.03505855 47.515264 163.46996837 47.49155426 167.90546227 C47.46922458 172.0828959 47.47515352 176.2593838 47.50153923 180.43678474 C47.50626023 181.9575879 47.50102535 183.47846505 47.48430824 184.99918365 C47.37084051 196.06319498 49.64457298 204.23605768 54.25 214.1875 C54.86429664 215.73045765 55.46518201 217.27894002 56.04296875 218.8359375 C56.76084132 220.75428604 57.47873752 222.67262577 58.19702148 224.59082031 C59.47282959 228.01906029 60.69358457 231.45503286 61.8125 234.9375 C63.29199914 239.51606836 65.18203197 243.90660257 67.0546875 248.3359375 C68.81981166 252.54685462 70.51173939 256.78096217 71.8515625 261.1484375 C73.39792794 266.160152 75.4582153 270.78891153 77.75 275.5 C80.46759188 281.10327497 82.34176726 286.45551303 83.546875 292.6015625 C84.34262102 295.52813953 85.66295681 297.61305211 87.25 300.1875 C87.98135994 302.04583094 88.66926482 303.92185732 89.3125 305.8125 C90.40804289 309.02433257 91.35198812 311.34048218 93.25 314.1875 C93.77027291 315.56853856 94.24631586 316.96670034 94.6875 318.375 C96.75143146 324.76189237 99.1360099 330.94220904 101.75 337.125 C103.55917632 341.42585627 105.1494405 345.72494055 106.56640625 350.16796875 C107.21566511 352.08606493 108.01094508 353.95289259 108.8125 355.8125 C110.25 359.1875 110.25 359.1875 111.3125 363 C111.9914531 366.24818786 111.9914531 366.24818786 114.25 368.1875 C114.76816299 369.87864734 115.21748233 371.59133715 115.625 373.3125 C116.74197717 377.66700997 118.20447198 381.2733914 120.33984375 385.203125 C121.68482935 388.13553995 122.21714861 391.13794187 122.7578125 394.3046875 C123.13987607 396.41423096 123.13987607 396.41423096 125.25 398.1875 C125.76675231 399.68948886 126.2166267 401.21499683 126.625 402.75 C127.84904568 407.04652399 129.4056329 410.98571339 131.27734375 415.03515625 C132.7779089 418.35568396 134.00211271 421.76609474 135.25 425.1875 C135.72897545 426.43757328 136.20814609 427.68757179 136.6875 428.9375 C137.98082466 432.36379464 139.11907983 435.82943788 140.25 439.3125 C142.66329392 446.86349314 142.66329392 446.86349314 147.25 453.1875 C147.93502609 455.16774348 148.54998202 457.17256096 149.125 459.1875 C150.63043199 464.27114161 152.34712063 469.14929056 154.37890625 474.04296875 C155.09777495 475.81273968 155.71892686 477.6218645 156.3125 479.4375 C157.19603282 482.25121118 157.19603282 482.25121118 158.6875 484.96875 C160.21086225 488.10687624 161.22685445 491.08967087 162.1875 494.4375 C163.90452663 500.18043375 165.92845578 505.66644574 168.25 511.1875 C168.67667969 512.23679687 169.10335938 513.28609375 169.54296875 514.3671875 C171.99761859 520.48332422 171.99761859 520.48332422 175.25 526.1875 C175.7546112 527.9037326 176.20789531 529.63542808 176.625 531.375 C177.74762646 535.70594471 179.21417726 539.34247171 181.33203125 543.26171875 C182.85398612 546.45458577 183.51089459 549.73834142 184.25 553.1875 C185.24 553.1875 186.23 553.1875 187.25 553.1875 C187.476875 551.95 187.70375 550.7125 187.9375 549.4375 C189.27193294 543.37015024 191.7775072 537.861554 194.25 532.1875 C194.91834855 530.52150707 195.58526 528.85493604 196.25 527.1875 C196.70375 526.176875 197.1575 525.16625 197.625 524.125 C199.00656996 520.93142121 200.10642973 517.68180317 201.1875 514.375 C205.76467862 500.41548208 205.76467862 500.41548208 209.25 495.1875 C209.70974135 493.55317556 210.12090589 491.90489158 210.5 490.25 C211.91721082 484.78978165 214.16133732 480.15092514 216.765625 475.16796875 C219.0163491 470.64875169 220.65133655 465.96908797 222.25 461.1875 C222.51554687 460.3934375 222.78109375 459.599375 223.0546875 458.78125 C223.54899241 457.29323935 224.04251893 455.80496983 224.53515625 454.31640625 C225.25198738 452.18158131 225.98581029 450.05584971 226.75 447.9375 C227.07484375 447.03257812 227.07484375 447.03257812 227.40625 446.109375 C228.25 444.1875 228.25 444.1875 229.71875 441.9140625 C231.57042407 438.61694897 232.35648193 435.48337006 233.25 431.8125 C234.5084523 426.66333266 236.06461653 422.01719747 238.25 417.1875 C242.79784851 406.83615389 242.79784851 406.83615389 246.609375 396.19921875 C248.14281128 391.38385481 249.8924072 386.78565136 252.25 382.3125 C254.15847953 378.61164617 255.35049466 374.88630225 256.44140625 370.875 C259.02091136 362.3015724 262.66117009 354.00264144 265.93359375 345.67578125 C267.63255133 341.34544155 269.32365209 337.01521223 270.9375 332.65234375 C272.25 329.1875 272.25 329.1875 273.75 326.25 C275.2813404 323.12351335 276.3257889 320.04997238 277.39453125 316.74609375 C279.8402261 309.4313443 282.7990017 302.29144192 285.69140625 295.14453125 C286.13154053 294.05398438 286.5716748 292.9634375 287.02514648 291.83984375 C287.90729789 289.65720111 288.79336413 287.47613554 289.68383789 285.296875 C291.96338726 279.65689839 294.00128135 274.0591049 295.61865234 268.19238281 C296.43800992 265.59046309 297.82416053 263.50448914 299.25 261.1875 C300.06958171 258.90001075 300.80135824 256.5993874 301.50390625 254.2734375 C302.25 252.1875 302.25 252.1875 304.25 249.1875 C304.94184489 247.13997525 305.58188268 245.07466494 306.1875 243 C307.69626778 237.9689251 309.33135059 233.0729499 311.25 228.1875 C312.06264089 226.06255388 312.87512711 223.9375486 313.6875 221.8125 C315.52995919 217.02321601 317.4141476 212.25394736 319.35546875 207.50390625 C319.65066406 206.73949219 319.94585938 205.97507812 320.25 205.1875 C320.75345947 203.90218887 320.75345947 203.90218887 321.26708984 202.59091187 C322.45547953 198.47600925 322.70907136 194.67843033 322.87109375 190.41650391 C322.90883408 189.54861048 322.9465744 188.68071705 322.98545837 187.78652382 C323.38469514 177.52957898 323.36284295 167.26997881 323.32516479 157.00699997 C323.31216801 153.43212035 323.30582849 149.85727866 323.30102539 146.28237915 C323.28972307 138.70906874 323.27044885 131.1357905 323.25 123.5625 C323.22630086 114.74084318 323.20597553 105.91920399 323.19406128 97.09752274 C323.18762444 93.59122533 323.17512641 90.08498402 323.16235352 86.57870483 C323.15871968 84.42014615 323.15536811 82.26158697 323.15234375 80.10302734 C323.14717743 79.14181976 323.14201111 78.18061218 323.13668823 77.1902771 C323.13627809 71.89353293 323.40836327 66.72323468 324.02857971 61.46160316 C324.4124284 57.51927465 324.31522951 53.58116995 324.25 49.625 C323.99395385 34.01898692 326.08521606 20.85977412 337.25 9.1875 C337.74886719 8.64738281 338.24773437 8.10726562 338.76171875 7.55078125 C346.86660437 0.12662093 360.24810764 0.00740445 370.5625 0 C371.8918457 -0.01836914 371.8918457 -0.01836914 373.24804688 -0.03710938 C387.05426683 -0.06731992 398.16363524 3.5160363 408.33984375 13.08203125 C414.84040248 20.24726878 416.37976018 29.64326862 416.85522461 39.02832031 C416.89253409 39.75900349 416.92984358 40.48968666 416.96828365 41.24251175 C417.37264992 49.73572372 417.47945971 58.23311928 417.56640625 66.734375 C417.58721846 68.49532894 417.60830853 70.25627962 417.62965393 72.01722717 C417.68500142 76.69290237 417.7347378 81.36861945 417.78263092 86.04437637 C417.81266303 88.95329147 417.84399952 91.86218997 417.87567139 94.77108765 C418.1470109 119.8470494 418.35083865 144.92251374 418.375 170 C418.3775882 171.22948364 418.38017639 172.45896729 418.38284302 173.72570801 C418.4011489 184.58744348 418.39994877 195.44244345 417.85546875 206.29296875 C417.82353424 206.98034622 417.79159973 207.66772369 417.75869751 208.37593079 C416.96965116 221.58707028 412.22904466 233.72860334 406.75 245.625 C403.56161559 252.55924708 401.0584519 259.68951234 398.6875 266.9375 C397.64786752 270.08975464 396.47825492 273.13791389 395.1328125 276.17578125 C393.96760335 278.83101448 392.86122509 281.50924791 391.75 284.1875 C390.40431978 287.43083107 389.04691622 290.66446286 387.625 293.875 C386.56159386 296.43684206 385.66004087 298.92923132 384.8125 301.5625 C383.84680356 304.53923438 382.7616962 307.35306351 381.4375 310.1875 C379.00667398 315.45272548 377.19361025 320.92968906 375.35620117 326.42382812 C373.46207563 331.97542437 373.46207563 331.97542437 371.25 334.1875 C370.56436433 336.35675908 369.94965514 338.54873838 369.375 340.75 C367.98425499 345.8251814 366.38536688 350.48118354 364.125 355.22265625 C363.26513358 357.15351701 362.6679099 359.02234639 362.125 361.0625 C361.25 364.1875 361.25 364.1875 359.25 367.1875 C358.56875294 369.18258067 357.90572791 371.18388693 357.25 373.1875 C355.48855175 377.76877743 353.6302727 382.30526733 351.6875 386.8125 C350.36256439 389.92321838 349.16857181 393.05168797 348 396.22265625 C347.30434719 398.04512169 346.53018012 399.83708723 345.75 401.625 C344.68065094 404.16470401 343.77169605 406.57758838 342.9375 409.1875 C340.11926541 417.80118112 336.57398545 426.16490523 332.96484375 434.47265625 C332.56797363 435.38756836 332.17110352 436.30248047 331.76220703 437.24511719 C330.98347863 439.03330833 330.19959426 440.81926625 329.40966797 442.60253906 C327.19865063 447.67103587 325.46922576 452.69229738 323.95825195 458.0090332 C323.09175529 460.67423475 321.75964677 462.83641076 320.25 465.1875 C319.57414369 467.04477442 318.95086423 468.9218307 318.375 470.8125 C316.73106473 475.94586109 314.6968636 480.72354304 312.41015625 485.59765625 C310.7193885 489.37199637 309.47285001 493.24167584 308.25 497.1875 C306.30067528 503.38680595 303.98171114 509.34404676 301.4453125 515.328125 C300.45194704 517.704411 299.51472812 520.08368574 298.625 522.5 C297.73021062 524.89966242 296.77428171 527.27768776 295.75 529.625 C294.59885307 532.35897395 293.6441197 534.99509156 292.75 537.8125 C291.92338836 540.37413503 291.16963601 542.31809148 289.75 544.625 C287.91996694 547.75130647 287.11507165 550.84599886 286.125 554.31640625 C283.2998079 563.58656781 279.31997527 572.41161583 275.25 581.1875 C272.60476506 587.10385136 270.04051745 593.08623924 268.4375 599.375 C266.98071299 604.05205303 264.92080683 608.30854782 262.78515625 612.7109375 C261.31704324 616.03567179 260.176326 619.33526579 259.06030273 622.78710938 C257.63450427 627.01080643 255.93011051 631.12236008 254.25 635.25 C251.37652841 642.33418904 251.37652841 642.33418904 248.65234375 649.4765625 C247.48522256 652.56504476 246.22603803 655.51998376 244.8125 658.5 C242.29470408 663.95900497 240.24352562 669.52031582 238.25 675.1875 C237.2687263 677.86134104 236.26083083 680.52470953 235.25 683.1875 C234.8684375 684.19941406 234.486875 685.21132812 234.09375 686.25390625 C230.61615107 695.4038083 227.33928255 703.99064967 221.71484375 712.046875 C220.18780683 714.20029536 220.18780683 714.20029536 218.88671875 716.6953125 C216.96495167 719.6215354 214.95279756 721.25811716 212.125 723.3125 C210.79082031 724.30636719 210.79082031 724.30636719 209.4296875 725.3203125 C201.58746885 729.92544827 194.301686 730.68722847 185.3125 730.625 C184.29220703 730.64498047 183.27191406 730.66496094 182.22070312 730.68554688 C172.8606427 730.67957364 165.34333107 728.44632154 158.25 722.1875 C157.59 721.919375 156.93 721.65125 156.25 721.375 C147.5322325 716.19882555 143.35961145 701.84642737 140.23828125 692.81640625 C139.27589608 690.25638561 138.14702191 687.91886071 136.875 685.5 C133.63122036 679.24200051 131.34957183 672.64327286 128.93457031 666.03515625 C127.7585575 662.861096 126.48718086 659.72690155 125.20703125 656.59375 C124.41699887 654.60738286 123.6643325 652.60619774 122.921875 650.6015625 C120.60121972 644.38513343 118.01804922 638.27387404 115.47851562 632.14453125 C113.57681486 627.52838282 111.79723609 622.93637613 110.25 618.1875 C109.30604974 615.78447233 108.35007863 613.39019591 107.375 611 C105.5554559 606.50705369 103.79948861 602.01028402 102.1875 597.4375 C100.86176669 593.71439897 99.35499121 590.14562099 97.6875 586.5625 C95.83431653 582.57928554 94.32308763 578.62871693 92.99609375 574.4453125 C91.26646211 569.21113926 89.23402538 564.07682872 86.6875 559.1875 C85.43822534 556.5803181 84.65229969 554.26614469 83.875 551.5 C82.2384285 545.78061329 79.78834217 540.55357188 77.25 535.1875 C75.72485418 531.85813912 74.36228816 528.61937754 73.4375 525.0625 C72.16742547 520.30238872 69.86452206 515.97490564 67.76953125 511.53515625 C65.64125629 506.84638596 63.93880654 502.04759484 62.25 497.1875 C60.70268325 492.94612415 59.07515486 488.74488095 57.375 484.5625 C55.72635052 480.47233908 54.22005372 476.34513661 52.75 472.1875 C50.71887118 466.45725476 48.56643206 460.8075684 46.25 455.1875 C45.6953057 453.83984655 45.14061886 452.49219003 44.5859375 451.14453125 C43.66541258 448.90946603 42.74464256 446.67450238 41.82348633 444.43969727 C35.91486544 430.100658 35.91486544 430.100658 33.375 422.875 C31.90606945 418.75158471 30.1666025 414.87183226 28.25 410.9375 C25.38140272 404.89682664 23.71066079 398.98139857 22.20703125 392.5 C21.27341969 389.2685608 20.05539519 386.99800966 18.25 384.1875 C17.70983416 382.91210844 17.20586401 381.62039555 16.75 380.3125 C15.824932 377.73483656 14.84812392 375.26653397 13.75 372.75 C12.64700096 370.13037729 11.72753174 367.63399083 10.875 364.9375 C9.10726118 359.48542133 6.67004598 354.37443894 4.25 349.1875 C2.62243074 345.62762511 1.24216407 342.15938285 0.1875 338.375 C-0.4914531 335.12681214 -0.4914531 335.12681214 -2.75 333.1875 C-3.54793131 330.58326266 -4.15012046 327.95566236 -4.7734375 325.3046875 C-5.78885717 322.06346791 -7.17000898 319.29925551 -8.72460938 316.29345703 C-10.39390232 312.86504729 -11.59341731 309.29545902 -12.8125 305.6875 C-13.30258564 304.26014181 -13.7934686 302.83305713 -14.28515625 301.40625 C-14.52484131 300.71023682 -14.76452637 300.01422363 -15.01147461 299.29711914 C-16.67772014 294.5374406 -18.38120821 289.80182808 -20.5625 285.25 C-22.97547759 279.95821903 -24.80073354 274.46188274 -26.64379883 268.95141602 C-28.05017026 264.69324184 -28.05017026 264.69324184 -30.75 261.1875 C-31.27079122 259.53928165 -31.71925914 257.8677445 -32.125 256.1875 C-33.56311139 250.63116055 -35.54763221 245.47672063 -37.75 240.1875 C-38.7884472 237.53424256 -39.78138539 234.86698279 -40.75 232.1875 C-41.0078125 231.47980469 -41.265625 230.77210938 -41.53125 230.04296875 C-44.90442801 220.41254552 -46.04847199 211.29917718 -46.06884766 201.1171875 C-46.07889328 199.95114487 -46.0889389 198.78510223 -46.09928894 197.58372498 C-46.13006113 193.74332113 -46.14717039 189.90298792 -46.1640625 186.0625 C-46.1817685 183.35569864 -46.20231313 180.64892062 -46.2227478 177.94213867 C-46.26416646 172.25979218 -46.29865826 166.57744011 -46.328125 160.89501953 C-46.36902824 153.00777062 -46.42181873 145.12063746 -46.4773941 137.2334801 C-46.63920093 114.12867529 -46.78146518 91.02340421 -46.7890625 67.91796875 C-46.78975739 66.6395813 -46.79045227 65.36119385 -46.79116821 64.04406738 C-46.75025013 23.61700569 -46.75025013 23.61700569 -38.375 13.5 C-33.44455564 8.6534781 -28.14562398 5.74574959 -21.75 3.1875 C-20.904375 2.81625 -20.05875 2.445 -19.1875 2.0625 C-12.95193409 -0.17590827 -6.53857726 0.00441796 0 0 Z " fill="#FEFEFE" transform="translate(1276.75,625.8125)"/>
<path d="M0 0 C1.72577778 -0.00115342 3.45155532 -0.00274242 5.17733234 -0.00472724 C9.90249942 -0.0088912 14.62764623 -0.00684303 19.35281336 -0.00374103 C24.45693066 -0.0014748 29.56104452 -0.0049729 34.66516113 -0.00772095 C44.66387962 -0.01216671 54.66259059 -0.01120683 64.66130937 -0.00830831 C72.80199758 -0.0060467 80.94268368 -0.00574505 89.08337212 -0.00683212 C90.2436918 -0.00698536 91.40401149 -0.00713859 92.59949238 -0.00729647 C94.95722191 -0.00761621 97.31495144 -0.00794043 99.67268097 -0.00826906 C121.78820907 -0.01112111 143.90373303 -0.00784264 166.01926046 -0.00246869 C184.9330847 0.00198552 203.8469028 0.00123433 222.76072693 -0.00338745 C244.76336564 -0.00876157 266.7660007 -0.01083219 288.76863998 -0.00777519 C291.12455777 -0.00745668 293.48047556 -0.00714231 295.83639336 -0.00683212 C297.57468509 -0.00660071 297.57468509 -0.00660071 299.34809383 -0.00636462 C307.45294523 -0.00550693 315.5577943 -0.0069464 323.66264534 -0.00931168 C333.57910064 -0.01214209 343.49554804 -0.01130463 353.41200245 -0.00603093 C358.45705338 -0.00343497 363.50209125 -0.0023173 368.54714203 -0.00568008 C387.00202652 -0.01690509 405.44587141 0.03574649 423.89413452 0.5725708 C424.94711765 0.60169944 424.94711765 0.60169944 426.02137316 0.63141654 C427.97354972 0.68717021 429.92549251 0.75093812 431.87740993 0.81512642 C433.51567766 0.86887765 433.51567766 0.86887765 435.1870417 0.92371476 C437.60987876 1.09886981 439.67102131 1.48209657 441.99876404 2.12698364 C443.75944823 2.24930595 445.52349385 2.32723253 447.28782654 2.37307739 C448.31263123 2.40594849 449.33743591 2.43881958 450.39329529 2.47268677 C452.52341408 2.53321614 454.6536255 2.59058026 456.78392029 2.64456177 C475.96956828 3.27929294 475.96956828 3.27929294 482.99876404 10.12698364 C486.88739828 14.49971316 490.00122889 18.5932714 491.99876404 24.12698364 C492.34938904 25.09635864 492.70001404 26.06573364 493.06126404 27.06448364 C496.95993138 39.8001303 496.61109405 57.3003145 492.99876404 70.12698364 C492.05359019 71.8253429 491.05900129 73.49797328 489.99876404 75.12698364 C489.41095154 76.30260864 489.41095154 76.30260864 488.81126404 77.50198364 C486.5610131 80.76096776 483.85903098 83.03949688 480.83860779 85.57620239 C478.92189743 87.14722003 478.92189743 87.14722003 476.99876404 89.12698364 C474.96751404 89.94338989 474.96751404 89.94338989 472.49876404 90.68948364 C471.70470154 90.93827271 470.91063904 91.18706177 470.09251404 91.44338989 C459.42718939 93.79999572 448.36393502 93.29873211 437.50413513 93.33230591 C435.53223979 93.34189711 433.56034646 93.3519079 431.5884552 93.36230469 C426.25865172 93.38922533 420.9288395 93.41030402 415.59900618 93.43030667 C410.02029822 93.45224588 404.4416168 93.47959558 398.8629303 93.50636292 C388.30931963 93.55618288 377.75569414 93.60116119 367.20205462 93.64438528 C355.18268681 93.69384933 343.16334564 93.74873333 331.14400363 93.80406487 C306.42894865 93.91772062 281.71386808 94.0245951 256.99876404 94.12698364 C256.99914376 95.16273002 256.99952348 96.1984764 256.99991471 97.26560903 C257.01667263 143.16135532 257.03208699 189.05710183 257.04110718 234.95285034 C257.04124523 235.65347629 257.04138329 236.35410223 257.04152553 237.07595927 C257.0445221 252.32170684 257.04729176 267.56745444 257.04982937 282.8132021 C257.05107613 290.29540012 257.05237276 297.77759813 257.05369568 305.25979614 C257.05382644 306.00415671 257.0539572 306.74851728 257.05409192 307.51543423 C257.05831333 331.41429133 257.06579366 355.31314599 257.07506126 379.21200163 C257.0846091 403.87975804 257.09067559 428.54751312 257.09267903 453.21527135 C257.09296696 456.74157485 257.09329259 460.26787834 257.09364128 463.79418182 C257.0937087 464.48785305 257.09377613 465.18152428 257.09384559 465.89621584 C257.0948618 475.49164905 257.09817148 485.08707894 257.10340382 494.68251074 C257.12186327 528.68292091 257.1095952 562.68302822 257.0088256 596.68331552 C256.99872 600.14205499 256.98942042 603.60079604 256.98016882 607.05953789 C256.94321246 620.2303281 256.88106197 633.40064959 256.78362167 646.57113409 C256.75482393 650.53508727 256.73458226 654.49892699 256.72247326 658.46296549 C256.70804728 663.01932114 256.67471368 667.5751502 256.62666841 672.1312719 C256.61238879 673.76674903 256.60444831 675.40229807 256.60389094 677.03783745 C256.59161793 691.29055689 255.66236659 707.46338109 245.04173279 718.08401489 C233.79726052 728.32712414 218.48162109 728.89271553 203.85423279 728.47854614 C191.33520516 727.79196305 180.5248557 724.05250021 171.74876404 714.93948364 C159.45642822 700.26098851 161.71037478 678.90235458 161.758255 660.92448425 C161.75738182 658.47790575 161.75562878 656.03132744 161.75307667 653.58475012 C161.74954918 648.28561406 161.75217473 642.98653543 161.76035309 637.68740845 C161.77247977 629.8079512 161.77301947 621.92852212 161.77126911 614.04905725 C161.76864801 600.79117566 161.77529859 587.53331408 161.78730392 574.27543831 C161.79915355 561.15577152 161.80683896 548.03611307 161.80900955 534.91644096 C161.80914703 534.09952746 161.80928451 533.28261395 161.80942616 532.44094549 C161.81010286 528.29195338 161.81070561 524.14296126 161.81127991 519.99396913 C161.81547644 490.63603927 161.82893915 461.27812028 161.84788513 431.92019653 C161.8662652 403.40619972 161.88042693 374.8922059 161.88890076 346.37820435 C161.88916381 345.49868425 161.88942686 344.61916415 161.88969789 343.71299194 C161.89233501 334.8801803 161.89488663 326.04736864 161.8973756 317.21455696 C161.90244751 299.22242929 161.90809001 281.23030182 161.91407776 263.23817444 C161.91448963 261.99740577 161.91448963 261.99740577 161.91490982 260.73157106 C161.93329921 205.53003736 161.96502991 150.32850983 161.99876404 95.12698364 C161.06761434 95.12459529 160.13646463 95.12220694 159.17709827 95.11974621 C136.481862 95.060856 113.78673109 94.98491453 91.09161091 94.89126873 C80.11625443 94.84637317 69.14092994 94.80694417 58.16551208 94.7805481 C48.59526228 94.75751743 39.02511426 94.72406297 29.45494527 94.67828208 C24.3913179 94.65441813 19.32779091 94.63564469 14.26410866 94.62936974 C9.48949781 94.62328789 4.71514358 94.60317699 -0.05937195 94.57270813 C-1.80351791 94.56397732 -3.54769749 94.56019493 -5.2918644 94.56197548 C-22.16955364 94.57375596 -36.73486831 92.90475671 -49.54029846 80.88870239 C-53.03509657 76.96676229 -54.59363417 73.1231011 -56.00123596 68.12698364 C-56.39311096 67.07510864 -56.78498596 66.02323364 -57.18873596 64.93948364 C-58.88388116 59.07167334 -59.16114399 53.20098058 -59.12623596 47.12698364 C-59.13010315 46.45409302 -59.13397034 45.78120239 -59.13795471 45.08792114 C-59.12448937 38.11287485 -58.09807778 31.76698272 -56.00123596 25.12698364 C-55.69379456 24.13311646 -55.69379456 24.13311646 -55.38014221 23.11917114 C-52.32634244 14.04403737 -46.2259508 8.75485025 -38.00123596 4.12698364 C-25.9129207 -0.60846749 -12.76429604 -0.01860578 0 0 Z " fill="#FEFEFE" transform="translate(733.0012359619141,434.8730163574219)"/>
<path d="M0 0 C2.30397446 -0.00736117 4.60794526 -0.01595324 6.91191101 -0.02566528 C13.10406209 -0.0476685 19.29607929 -0.05082291 25.48826408 -0.04891777 C30.68417148 -0.04879714 35.88005144 -0.05739815 41.0759511 -0.06569529 C54.04281409 -0.0859415 67.00960057 -0.08710785 79.97647387 -0.07988816 C91.18370256 -0.07431219 102.39070272 -0.09515841 113.59787804 -0.12824863 C125.16886418 -0.16214215 136.73973124 -0.17666263 148.31076765 -0.1725316 C154.78175676 -0.17047623 161.25251773 -0.17575569 167.72346497 -0.20042419 C173.81083889 -0.22286998 179.89773986 -0.22066651 185.98511696 -0.20049667 C188.20164682 -0.1971186 190.41820969 -0.20203495 192.63469505 -0.21648026 C203.56375894 -0.28272027 213.9896268 0.16145748 224.68127441 2.58337402 C225.52445268 2.76879336 226.36763095 2.95421269 227.23636007 3.1452508 C236.675202 5.55129812 245.52834135 12.44067838 250.63476562 20.77148438 C251.93780071 23.28420278 253.09512843 25.81162338 254.19335938 28.41992188 C254.65742187 29.48339844 254.65742187 29.48339844 255.13085938 30.56835938 C257.73863953 37.31348304 257.93492641 44.25648315 258.19335938 51.41992188 C258.25523437 52.77923828 258.25523437 52.77923828 258.31835938 54.16601562 C258.45815629 59.90642664 257.95518823 65.5350889 257.31835938 71.23242188 C257.23996826 71.95018799 257.16157715 72.6679541 257.08081055 73.4074707 C256.56631899 77.63932407 255.6679112 81.426344 254.19335938 85.41992188 C253.80277344 86.65355469 253.80277344 86.65355469 253.40429688 87.91210938 C249.73661268 98.36672321 241.53390657 105.30728961 231.75585938 110.10742188 C224.28967791 112.85812031 217.86871792 113.71102892 209.97537231 113.66716003 C208.97259967 113.66957445 207.96982702 113.67198887 206.93666732 113.67447644 C203.59003535 113.6800938 200.24359593 113.67146477 196.89697266 113.6628418 C194.49153085 113.66391524 192.08608929 113.66585483 189.6806488 113.66859436 C183.83093565 113.67293562 177.981274 113.66800764 172.13157065 113.65874406 C165.30348715 113.64832353 158.4754157 113.64843129 151.64732574 113.64891664 C139.44781463 113.64941692 127.24832976 113.64026867 115.04882812 113.62573242 C103.2464144 113.61167681 91.44402377 113.60456039 79.64160156 113.60522461 C78.9160927 113.60526457 78.19058384 113.60530452 77.44308986 113.60534569 C76.718766 113.60538604 75.99444213 113.6054264 75.24816906 113.60546798 C61.77361809 113.60616102 48.29907683 113.60024547 34.82452903 113.59131476 C30.08147611 113.58831768 25.338425 113.58723747 20.59537125 113.58678246 C14.18493929 113.58577024 7.77453119 113.57960266 1.36410713 113.56961632 C-0.97622087 113.56672016 -3.31655161 113.56546002 -5.65688133 113.56604385 C-16.09094893 113.56766033 -26.52324368 113.54238507 -36.94900513 113.08662415 C-37.6605742 113.06313501 -38.37214327 113.03964587 -39.10527503 113.01544493 C-45.71116143 112.66339471 -50.52763552 110.2336149 -55.80664062 106.41992188 C-56.73476562 105.80117187 -57.66289062 105.18242188 -58.61914062 104.54492188 C-66.87427738 96.52564617 -72.7100135 85.89074783 -72.9519043 74.24731445 C-72.96521326 72.60306379 -72.97243011 70.95875621 -72.97460938 69.31445312 C-72.97793777 68.43520676 -72.98126617 67.55596039 -72.98469543 66.65007019 C-72.98974817 64.79170248 -72.99210427 62.93332574 -72.99194336 61.07495117 C-72.99411973 58.25944675 -73.01226511 55.44434091 -73.03125 52.62890625 C-73.03418645 50.81575653 -73.03616956 49.00260498 -73.03710938 47.18945312 C-73.04429489 46.3599263 -73.05148041 45.53039948 -73.05888367 44.67573547 C-73.00759864 31.27439477 -68.93301087 21.2483206 -59.80664062 11.41992188 C-45.54103535 -2.43809467 -18.31341672 -0.02811203 0 0 Z " fill="#FEFEFE" transform="translate(230.806640625,933.580078125)"/>
<path d="M0 0 C0.66 0 1.32 0 2 0 C2.57986999 18.72702482 3.10102517 37.45035657 3.125 56.1875 C3.12874634 57.19996292 3.12874634 57.19996292 3.13256836 58.23287964 C3.1570306 66.21454087 2.90192481 74.06655433 2 82 C1.34 82 0.68 82 0 82 C0 54.94 0 27.88 0 0 Z " fill="#DADDF4" transform="translate(555,564)"/>
<path d="M0 0 C0.66 0 1.32 0 2 0 C2.16855843 6.45937327 2.32838584 12.91892051 2.48217773 19.37866211 C2.53550981 21.57565184 2.59083207 23.7725942 2.64819336 25.96948242 C2.7303498 29.12929066 2.80532111 32.28920071 2.87890625 35.44921875 C2.90594131 36.42960617 2.93297638 37.40999359 2.96083069 38.42008972 C2.98092697 39.34066666 3.00102325 40.26124359 3.02172852 41.2097168 C3.04171402 42.0157988 3.06169952 42.8218808 3.08229065 43.65238953 C2.99324257 46.19277774 2.56095485 48.52439344 2 51 C1.34 51 0.68 51 0 51 C0 34.17 0 17.34 0 0 Z " fill="#E0E4F5" transform="translate(555,666)"/>
<path d="M0 0 C0.66 0 1.32 0 2 0 C2.33 1.32 2.66 2.64 3 4 C2.030625 4.45375 1.06125 4.9075 0.0625 5.375 C-3.07079582 6.65786221 -3.07079582 6.65786221 -4 9 C-4.66 9 -5.32 9 -6 9 C-4.4722133 5.56247993 -2.49818944 2.81046312 0 0 Z " fill="#E9EBF7" transform="translate(1241,637)"/>
<path d="M0 0 C1.9375 1.125 1.9375 1.125 4 3 C4.75 6.1875 4.75 6.1875 5 9 C3.68 9.33 2.36 9.66 1 10 C1 7.36 1 4.72 1 2 C0.34 1.67 -0.32 1.34 -1 1 C-0.67 0.67 -0.34 0.34 0 0 Z " fill="#E9EAF5" transform="translate(1420,1076)"/>
<path d="M0 0 C0.66 0 1.32 0 2 0 C1.33501617 4.38889325 -0.18757677 7.9811485 -2 12 C-2.66 11.67 -3.32 11.34 -4 11 C-3.5247412 9.35303396 -3.04468109 7.70745272 -2.5625 6.0625 C-2.29566406 5.14597656 -2.02882813 4.22945312 -1.75390625 3.28515625 C-1 1 -1 1 0 0 Z " fill="#F0F3F8" transform="translate(1561,1178)"/>
<path d="M0 0 C0.66 0 1.32 0 2 0 C2.6708712 1.6232687 3.33657029 3.24867578 4 4.875 C4.556875 6.23238281 4.556875 6.23238281 5.125 7.6171875 C6 10 6 10 6 12 C5.01 11.67 4.02 11.34 3 11 C2.05078125 9.00390625 2.05078125 9.00390625 1.3125 6.5625 C1.06113281 5.75941406 0.80976562 4.95632813 0.55078125 4.12890625 C0 2 0 2 0 0 Z " fill="#E8EBF5" transform="translate(1312,1052)"/>
<path d="M0 0 C-0.33 0.66 -0.66 1.32 -1 2 C-4.3 2 -7.6 2 -11 2 C-11 1.34 -11 0.68 -11 0 C-3.57142857 -1.28571429 -3.57142857 -1.28571429 0 0 Z " fill="#F0F4FC" transform="translate(1641,627)"/>
<path d="M0 0 C0.66 0.33 1.32 0.66 2 1 C0.54634731 2.17249353 -0.91307419 3.33783816 -2.375 4.5 C-3.18710938 5.1496875 -3.99921875 5.799375 -4.8359375 6.46875 C-7 8 -7 8 -9 8 C-9 7.34 -9 6.68 -9 6 C-6.23003304 3.53780715 -3.48737556 1.32279763 0 0 Z " fill="#F1F2F7" transform="translate(180,939)"/>
<path d="M0 0 C0.66 0 1.32 0 2 0 C1.75 2.875 1.75 2.875 1 6 C-1.0625 7.375 -1.0625 7.375 -3 8 C-1.125 1.125 -1.125 1.125 0 0 Z " fill="#EDEDF6" transform="translate(1514,1047)"/>
<path d="M0 0 C2.64 0 5.28 0 8 0 C8 0.66 8 1.32 8 2 C5.36 2.33 2.72 2.66 0 3 C0 2.01 0 1.02 0 0 Z " fill="#EAECF8" transform="translate(449,1044)"/>
<path d="M0 0 C0.66 0 1.32 0 2 0 C1.01 2.97 0.02 5.94 -1 9 C-1.33 9 -1.66 9 -2 9 C-1.125 2.25 -1.125 2.25 0 0 Z " fill="#EBEDF7" transform="translate(1672,895)"/>
<path d="M0 0 C3 2 3 2 3.6875 4.625 C3.8421875 5.800625 3.8421875 5.800625 4 7 C2.68 7.33 1.36 7.66 0 8 C0 5.36 0 2.72 0 0 Z " fill="#EBEBF6" transform="translate(1382,977)"/>
</svg>
