<?xml version="1.0" encoding="UTF-8"?>
<!-- Created with Grafika (https://www.grafika.cc/) -->
<svg xmlns="http://www.w3.org/2000/svg" xmlns:svg="http://www.w3.org/2000/svg" xmlns:xlink="http://www.w3.org/1999/xlink" width="2018.85" height="1483.69" viewBox="0 0 672.95 494.56" preserveAspectRatio="xMidYMid meet">
	<path d="M399.03 224.76 L365.61 224.68 L365.69 206.06 C365.8 182.07 365.36 156.96 364.61 145.45 L364.03 136.6 L362.18 133.41 C359.89 129.48 360.2 129.77 356.97 128.67 L354.28 127.76 L348.33 127.47 L346.49 127.95 C341.45 129.26 337.46 133.1 336.61 137.45 C335.92 140.99 335.34 161.03 334.84 198.48 C334.66 212.51 334.42 224.07 334.32 224.19 C334.21 224.31 315.43 224.32 292.58 224.22 L251.04 224.02 L251.18 210.12 C251.55 173.96 253.86 148.62 258.28 132.21 C265.05 107 286.43 88.25 317.17 80.54 L332.18 77.32 L344.36 77.5 C357.03 77.69 360.39 77.88 367.73 78.83 C395.48 82.42 417.54 93.94 431 111.85 C442.3 126.89 446.16 141.68 447.6 175.4 C447.91 182.57 448.2 218.77 447.98 222.63 L447.85 224.97 L399.03 224.76 Z" id="Path 2" style="fill:#FF141F;" />
	<path d="M341.74 493.93 L263.4 493.71 L263.91 492.38 C264.19 491.65 264.42 479.31 264.42 464.97 L264.42 438.88 L330.26 438.88 L329.8 402.22 L320.52 400.34 C291.48 394.45 271.98 379.68 260.53 354.91 C253.31 339.28 252.14 330.07 251.31 282.61 L250.75 250.76 L334.44 251.88 L334.44 341.09 L336.05 344.22 C336.93 345.95 338.67 348.3 339.91 349.46 L342.17 351.57 L355.41 351.57 L357.76 349.82 C359.05 348.85 360.96 346.39 362.01 344.34 L363.92 340.6 L365.08 251.61 L447.49 251.61 L447.48 275.44 C447.46 333.12 444.03 351.57 429.89 370.13 C416.96 387.1 401.78 395.97 376.41 401.38 L369.87 402.78 L369.87 438.62 L383.16 439.17 L431.46 439.73 L431.46 494.56 L341.74 493.93 Z" id="Path 3" style="fill:#000000;" />
	<path d="M521.93 402.82 L478.7 402.59 L478.7 358.01 L517.93 297.58 C559.78 233.4 583.18 192.78 590.93 170.82 L593.43 163.74 L593.43 140.17 L592.07 137.47 C588.33 130.04 582.73 126.75 573.83 126.75 L567.94 126.75 L564.53 129.45 C556.75 135.61 555.19 144.76 554.69 187.28 L554.62 192.55 L499.87 191.99 L480.12 191.43 L480.67 172.8 C481.55 142.66 482.98 135.07 490.66 119.63 L494.88 111.15 L512.86 92.88 L520.03 89.29 C528.01 85.3 534.22 82.94 543.66 80.33 L549.98 78.58 L564.32 78.08 C620.73 76.12 655.61 95.68 669.89 137.27 L671.91 143.15 L672.95 170.2 L671.1 179.48 C664.45 212.9 649.11 239.73 585.44 329.3 L571.41 349.04 L663.45 350.31 L663.45 403.45 L521.93 402.82 Z" id="Path 4" style="fill:#000000;" />
	<path d="M105.41 400.04 C87.61 398.4 73.31 394.78 61.4 388.9 C55.22 385.85 44.48 378.44 45.23 377.74 L59.85 379.57 L66.6 378.85 C94.73 375.82 123.76 358.82 133.27 339.81 L135.35 335.63 L136.47 155.32 L138.66 155.86 C165.51 162.54 184.45 186.75 194.07 226.72 L196.31 236 L195.31 274.8 L193.29 283.24 C192.17 287.88 191.43 291.97 191.63 292.33 C192.27 293.45 200.67 297.99 202.14 298 L203.54 298 L205.25 290.62 C207.73 279.88 208.56 274.59 209.94 260.67 L211.17 248.22 L209.96 235.36 C206.18 195.15 197.06 174.27 164.02 130.13 C143.95 103.31 139.36 94.66 136.67 78.55 L136.16 75.49 L142.71 76.69 C184.13 84.25 208.22 105.46 216.38 141.52 L218.29 149.95 L217.89 326.26 L215.85 335.82 C205.82 382.72 166.38 405.65 105.41 400.04 Z" id="Path 5" style="fill:#000000;" />
	<path d="M21.12 331.94 C19.14 317.96 18.32 231.06 19.78 188.76 C21.74 131.82 25.36 118.29 43.55 99.91 L51.41 91.95 L60.69 87.51 C77.18 79.61 92.44 75.77 111.46 74.72 L120.89 74.2 L119.72 299.53 L109.25 294.63 L83.27 294.63 L74.52 297.23 C52.87 303.66 33.2 317.09 25.5 330.69 C22.19 336.53 21.79 336.65 21.12 331.94 Z" id="Path 6" style="fill:#000000;" />
	<path d="M456.28 66.91 L448.63 66.43 L438.99 57.34 C418.36 37.89 401.71 28.86 375.78 23.05 L365.17 20.68 L349.17 21.04 C331.34 21.44 329.05 21.8 314.6 26.44 C296.64 32.22 281.44 41.18 267.18 54.42 L259.03 62 L243.84 60.94 C241.01 60.93 238.16 60.59 237.51 60.18 L236.33 59.43 L242.79 51.87 C268.66 21.62 303.58 4.25 345.04 1 L357.75 0 L368.66 1.82 C403.07 7.58 428.66 20.27 451.34 42.81 C459.82 51.24 471.11 65.01 471.11 66.93 C471.11 67.72 469.47 67.72 456.28 66.91 Z" id="Path 7" style="fill:#000000;" />
	<path d="M399.4 64.37 C396.31 64.07 390.42 62.51 385.9 60.79 C381.49 59.11 373.33 56.72 367.76 55.47 L357.64 53.21 L346.67 54.17 C334.23 55.27 321.59 58.19 313.54 61.84 L308.06 64.33 L283.4 64.25 L287.2 60.88 C291.73 56.86 311.87 46.79 321.37 43.79 C332.7 40.22 336.67 39.73 353 39.83 L368.61 39.93 L377.09 42.37 C393.93 47.23 408.34 54.65 420.03 64.49 C420.93 65.26 407.72 65.18 399.4 64.37 Z" id="Path 8" style="fill:#000000;" />
	<path d="M90.62 492.07 C88.54 491.93 86.66 491.62 86.44 491.38 C86.11 491.03 85.23 488.35 83.5 482.38 L83.28 481.61 L65.39 481.84 L62.78 492.05 L33.65 491.83 L18.57 472.08 L13.46 472.08 L13.46 492.04 L0 492.04 L0 438.22 L30.91 438.22 L33.58 439.61 C35.11 440.41 37.52 442.29 39.22 443.99 L42.19 446.98 L41.87 457.97 L40.73 460.43 C39.45 463.17 36.92 466.13 34.29 467.95 C33.34 468.61 32.56 469.33 32.56 469.55 C32.56 469.77 36.21 474.63 40.68 480.35 L48.81 490.76 L49.96 488.47 C51.2 486.03 55.22 474.66 62.74 452.43 L67.39 438.65 L82.42 438.65 L100.01 491.67 L99.38 492.07 C98.7 492.49 96.61 492.5 90.62 492.07 Z M80.08 470.67 C78.4 464.81 74.98 454.71 74.68 454.71 C73.9 454.71 69.04 470.07 69.64 470.67 C70.06 471.09 73.57 471.52 77.19 471.58 L80.36 471.64 L80.08 470.67 Z M25.89 460.46 L28.63 458.4 L28.65 450.82 L27.02 449.76 C24.91 448.38 22.87 447.9 17.69 447.53 L13.46 447.23 L13.46 462.53 L23.15 462.53 L25.89 460.46 Z" id="Path 9" style="fill:#000000;" />
	<path d="M105.91 465.5 L105.91 438.53 L135.65 439.16 L144.76 443.83 L147.5 446.56 C152.66 451.69 154.51 457.22 154.52 467.52 L154.53 473.6 L149.55 482.71 L144.33 487.94 L135.02 492.48 L105.91 492.48 L105.91 465.5 Z M128.12 482.73 C132.96 481.71 136.11 479.43 139.39 474.6 L141.07 472.12 L141.07 468.82 C141.07 460.67 139.26 455.45 135.13 451.67 C131.93 448.75 131.56 448.64 125.26 448.64 L119.92 448.64 L119.63 464.15 C119.47 472.69 119.5 480.26 119.71 480.97 C120.39 483.35 122.81 483.86 128.12 482.73 Z" id="Path 10" style="fill:#000000;" />
	<path d="M167.44 492.59 L161.04 492.45 L161.6 483.8 L167.71 483.52 L169.72 483.24 L169.72 448.2 L161.04 448.2 L161.04 439.09 L190.56 439.09 L190.56 448.2 L183.18 448.2 L182.6 483.36 L188.11 483.64 L190.12 483.91 L190.12 492.91 L167.44 492.59 Z" id="Path 11" style="fill:#000000;" />
	<path d="M219.61 494.24 C209.82 492.91 203.71 488.32 198.82 478.62 L197.41 475.83 L197.72 455.36 L199.89 451.49 C201.22 449.12 203.12 446.56 204.79 444.88 L207.52 442.14 L210.65 440.65 C215.08 438.55 217.99 438.04 225.2 438.13 L231.41 438.2 L234.94 440.04 C241.45 443.43 245.75 448.54 248.17 455.8 L249.33 459.27 L249.37 472.73 L248.36 475.97 C246.77 481.02 245.4 483.31 241.83 486.87 L238.52 490.16 L235.7 491.53 C230.8 493.9 224.69 494.93 219.61 494.24 Z M228.17 483.1 C230.85 481.45 233.3 477.95 234.51 474.04 L235.46 470.99 L235.48 461.01 L234.51 457.92 C233.32 454.13 231.29 451.02 228.93 449.37 L227.15 448.13 L221.82 447.65 L219.79 448.42 C216.82 449.56 214.59 451.82 212.66 455.66 L210.96 459.03 L210.96 473.4 L212.47 476.41 C214.44 480.31 216.3 482.39 218.99 483.67 L221.16 484.7 L226.08 484.4 L228.17 483.1 Z" id="Path 12" style="fill:#000000;" />
	<path d="M466.63 493.6 L464.96 493.39 L464.62 490.94 C464.44 489.59 464.29 479.5 464.29 468.51 L464.29 448.53 L448.1 448.53 L448.78 439.45 L508.08 439.45 L516.75 466.85 C518.31 471.77 519.72 475.8 519.89 475.8 C520.07 475.8 522.83 467.74 526.03 457.89 L531.85 439.98 L545.02 439.29 L545.02 440.08 C545.02 440.51 540.93 452.61 535.93 466.95 L526.84 493.24 L512.5 493.45 L503.29 466.45 C496.23 446.44 494.76 443.07 494.76 446.82 L494.76 448.37 L478.42 449.19 L477.48 493.98 L466.63 493.6 Z" id="Path 13" style="fill:#000000;" />
</svg>
